<mxfile host="app.diagrams.net" modified="2023-11-27T15:15:49.080Z" agent="Mozilla/5.0 (Windows NT 10.0; Win64; x64) AppleWebKit/537.36 (KHTML, like Gecko) Chrome/118.0.0.0 Safari/537.36 OPR/104.0.0.0" etag="hXR5_a7TEU6D_1LsrLmh" version="22.1.4" type="google">
  <diagram name="Page-1" id="eND6AKBLLOvCwxLWYn_u">
    <mxGraphModel grid="1" page="1" gridSize="10" guides="1" tooltips="1" connect="1" arrows="1" fold="1" pageScale="1" pageWidth="850" pageHeight="1100" math="0" shadow="0">
      <root>
        <mxCell id="0" />
        <mxCell id="1" parent="0" />
        <mxCell id="OxlySmR4vLSFhT8WwaMB-1" value="users: array&lt;br&gt;creators: array&lt;br&gt;posts/tweets: array&lt;br&gt;live-streams: array" style="rounded=0;whiteSpace=wrap;html=1;align=left;verticalAlign=top;" vertex="1" parent="1">
          <mxGeometry x="315" y="-430" width="220" height="80" as="geometry" />
        </mxCell>
        <mxCell id="OxlySmR4vLSFhT8WwaMB-2" value="username: string&lt;br&gt;posts/tweets: array&lt;br&gt;profile: UserProfile()" style="rounded=0;whiteSpace=wrap;html=1;align=left;verticalAlign=top;" vertex="1" parent="1">
          <mxGeometry x="540" width="220" height="120" as="geometry" />
        </mxCell>
        <mxCell id="OxlySmR4vLSFhT8WwaMB-3" value="username: string&lt;br&gt;liveStreams: array&lt;br&gt;profile: UserProfile()" style="rounded=0;whiteSpace=wrap;html=1;align=left;verticalAlign=top;" vertex="1" parent="1">
          <mxGeometry x="100" width="220" height="80" as="geometry" />
        </mxCell>
        <mxCell id="OxlySmR4vLSFhT8WwaMB-4" value="Twitter+" style="text;html=1;strokeColor=none;fillColor=none;align=center;verticalAlign=middle;whiteSpace=wrap;rounded=0;" vertex="1" parent="1">
          <mxGeometry x="315" y="-460" width="60" height="30" as="geometry" />
        </mxCell>
        <mxCell id="OxlySmR4vLSFhT8WwaMB-5" value="Users" style="text;html=1;strokeColor=none;fillColor=none;align=center;verticalAlign=middle;whiteSpace=wrap;rounded=0;" vertex="1" parent="1">
          <mxGeometry x="540" y="-30" width="60" height="30" as="geometry" />
        </mxCell>
        <mxCell id="OxlySmR4vLSFhT8WwaMB-6" value="Creator" style="text;html=1;strokeColor=none;fillColor=none;align=center;verticalAlign=middle;whiteSpace=wrap;rounded=0;" vertex="1" parent="1">
          <mxGeometry x="100" y="-30" width="60" height="30" as="geometry" />
        </mxCell>
        <mxCell id="OxlySmR4vLSFhT8WwaMB-7" value="+ addUser(user)&lt;br&gt;+ addCreator(creator)&lt;br&gt;+ addPost(post)&lt;br&gt;+ addLiveStream(livestream)&lt;br&gt;+ getUsers()&lt;br&gt;+ getCreators()&lt;br&gt;+ getPost()&lt;br&gt;+ getLiveStream()" style="rounded=0;whiteSpace=wrap;html=1;align=left;verticalAlign=top;" vertex="1" parent="1">
          <mxGeometry x="315" y="-350" width="220" height="200" as="geometry" />
        </mxCell>
        <mxCell id="OxlySmR4vLSFhT8WwaMB-39" style="edgeStyle=orthogonalEdgeStyle;rounded=0;orthogonalLoop=1;jettySize=auto;html=1;exitX=1;exitY=1;exitDx=0;exitDy=0;entryX=0;entryY=0;entryDx=0;entryDy=0;" edge="1" parent="1" source="OxlySmR4vLSFhT8WwaMB-8" target="OxlySmR4vLSFhT8WwaMB-22">
          <mxGeometry relative="1" as="geometry" />
        </mxCell>
        <mxCell id="OxlySmR4vLSFhT8WwaMB-8" value="+ startLiveStream(livestream)&lt;br&gt;+ getLiveStream()&lt;br&gt;+ customizeProfile(profile)&lt;br&gt;+ postTweet(tweet)&lt;br&gt;+ getTweet()" style="rounded=0;whiteSpace=wrap;html=1;align=left;verticalAlign=top;" vertex="1" parent="1">
          <mxGeometry x="100" y="80" width="220" height="200" as="geometry" />
        </mxCell>
        <mxCell id="OxlySmR4vLSFhT8WwaMB-9" value="+ postTweet(tweet)&lt;br&gt;+ getTweet()&lt;br&gt;+ customizeProfile(profile)&lt;br&gt;+ joinCommunity(community)&lt;br&gt;+ downloadVideo(video)&lt;br&gt;+ joinLiveStream(livestream)&lt;br&gt;+ chat(message)&lt;br&gt;+ customizeFeed(filters)&lt;br&gt;+ getFeed()" style="rounded=0;whiteSpace=wrap;html=1;align=left;verticalAlign=top;" vertex="1" parent="1">
          <mxGeometry x="540" y="80" width="220" height="200" as="geometry" />
        </mxCell>
        <mxCell id="OxlySmR4vLSFhT8WwaMB-10" value="streamID: string&lt;br&gt;title: string&lt;br&gt;URL: string&lt;br&gt;creator: Creator" style="rounded=0;whiteSpace=wrap;html=1;align=left;verticalAlign=top;" vertex="1" parent="1">
          <mxGeometry x="70" y="610" width="220" height="80" as="geometry" />
        </mxCell>
        <mxCell id="OxlySmR4vLSFhT8WwaMB-11" value="Live-Stream" style="text;html=1;strokeColor=none;fillColor=none;align=center;verticalAlign=middle;whiteSpace=wrap;rounded=0;" vertex="1" parent="1">
          <mxGeometry x="70" y="580" width="70" height="30" as="geometry" />
        </mxCell>
        <mxCell id="OxlySmR4vLSFhT8WwaMB-34" style="edgeStyle=orthogonalEdgeStyle;rounded=0;orthogonalLoop=1;jettySize=auto;html=1;exitX=0.5;exitY=1;exitDx=0;exitDy=0;entryX=0.5;entryY=0;entryDx=0;entryDy=0;startArrow=classic;startFill=1;" edge="1" parent="1" source="OxlySmR4vLSFhT8WwaMB-13" target="OxlySmR4vLSFhT8WwaMB-10">
          <mxGeometry relative="1" as="geometry" />
        </mxCell>
        <mxCell id="OxlySmR4vLSFhT8WwaMB-13" value="videoID: String&lt;br&gt;title: string&lt;br&gt;URL: string&lt;br&gt;creator: Creator" style="rounded=0;whiteSpace=wrap;html=1;align=left;verticalAlign=top;" vertex="1" parent="1">
          <mxGeometry x="70" y="460" width="220" height="80" as="geometry" />
        </mxCell>
        <mxCell id="OxlySmR4vLSFhT8WwaMB-14" value="Video" style="text;html=1;strokeColor=none;fillColor=none;align=center;verticalAlign=middle;whiteSpace=wrap;rounded=0;" vertex="1" parent="1">
          <mxGeometry x="70" y="430" width="60" height="30" as="geometry" />
        </mxCell>
        <mxCell id="OxlySmR4vLSFhT8WwaMB-37" style="edgeStyle=orthogonalEdgeStyle;rounded=0;orthogonalLoop=1;jettySize=auto;html=1;exitX=0.5;exitY=0;exitDx=0;exitDy=0;entryX=1;entryY=1;entryDx=0;entryDy=0;startArrow=classic;startFill=1;" edge="1" parent="1" source="OxlySmR4vLSFhT8WwaMB-16" target="OxlySmR4vLSFhT8WwaMB-9">
          <mxGeometry relative="1" as="geometry" />
        </mxCell>
        <mxCell id="OxlySmR4vLSFhT8WwaMB-16" value="username: string&lt;br&gt;bio: string&lt;br&gt;contactInfor: string&lt;br&gt;background: photo&lt;br&gt;profilePic: photo&lt;br&gt;messageBox: array(as many as wanted)&lt;br&gt;" style="rounded=0;whiteSpace=wrap;html=1;align=left;verticalAlign=top;" vertex="1" parent="1">
          <mxGeometry x="620" y="470" width="220" height="110" as="geometry" />
        </mxCell>
        <mxCell id="OxlySmR4vLSFhT8WwaMB-17" value="UserProfile" style="text;html=1;strokeColor=none;fillColor=none;align=center;verticalAlign=middle;whiteSpace=wrap;rounded=0;" vertex="1" parent="1">
          <mxGeometry x="620" y="440" width="100" height="30" as="geometry" />
        </mxCell>
        <mxCell id="OxlySmR4vLSFhT8WwaMB-22" value="communityID: string&lt;br&gt;communityName: string&lt;br&gt;description: string&lt;br&gt;members: Users array&lt;br&gt;moderators: Moderators array&lt;br&gt;creator: Creator&lt;br&gt;posts: array" style="rounded=0;whiteSpace=wrap;html=1;align=left;verticalAlign=top;" vertex="1" parent="1">
          <mxGeometry x="360" y="470" width="220" height="120" as="geometry" />
        </mxCell>
        <mxCell id="OxlySmR4vLSFhT8WwaMB-23" value="Content Community" style="text;html=1;strokeColor=none;fillColor=none;align=center;verticalAlign=middle;whiteSpace=wrap;rounded=0;" vertex="1" parent="1">
          <mxGeometry x="440" y="440" width="140" height="30" as="geometry" />
        </mxCell>
        <mxCell id="OxlySmR4vLSFhT8WwaMB-28" value="" style="endArrow=classic;startArrow=classic;html=1;rounded=0;entryX=0.018;entryY=1.004;entryDx=0;entryDy=0;exitX=1;exitY=0;exitDx=0;exitDy=0;entryPerimeter=0;" edge="1" parent="1" source="OxlySmR4vLSFhT8WwaMB-3" target="OxlySmR4vLSFhT8WwaMB-7">
          <mxGeometry width="50" height="50" relative="1" as="geometry">
            <mxPoint x="260" y="-50" as="sourcePoint" />
            <mxPoint x="310" y="-100" as="targetPoint" />
          </mxGeometry>
        </mxCell>
        <mxCell id="OxlySmR4vLSFhT8WwaMB-29" value="" style="endArrow=classic;startArrow=classic;html=1;rounded=0;entryX=0.018;entryY=1.004;entryDx=0;entryDy=0;exitX=0;exitY=1;exitDx=0;exitDy=0;entryPerimeter=0;" edge="1" parent="1" source="OxlySmR4vLSFhT8WwaMB-5">
          <mxGeometry width="50" height="50" relative="1" as="geometry">
            <mxPoint x="536" y="-1" as="sourcePoint" />
            <mxPoint x="535" y="-150" as="targetPoint" />
          </mxGeometry>
        </mxCell>
        <mxCell id="OxlySmR4vLSFhT8WwaMB-35" style="edgeStyle=orthogonalEdgeStyle;rounded=0;orthogonalLoop=1;jettySize=auto;html=1;exitX=0.25;exitY=1;exitDx=0;exitDy=0;entryX=0.386;entryY=-0.012;entryDx=0;entryDy=0;entryPerimeter=0;" edge="1" parent="1" source="OxlySmR4vLSFhT8WwaMB-8" target="OxlySmR4vLSFhT8WwaMB-13">
          <mxGeometry relative="1" as="geometry" />
        </mxCell>
        <mxCell id="OxlySmR4vLSFhT8WwaMB-36" style="edgeStyle=orthogonalEdgeStyle;rounded=0;orthogonalLoop=1;jettySize=auto;html=1;exitX=0.5;exitY=0;exitDx=0;exitDy=0;startArrow=classic;startFill=1;" edge="1" parent="1" source="OxlySmR4vLSFhT8WwaMB-13">
          <mxGeometry relative="1" as="geometry">
            <mxPoint x="540" y="280" as="targetPoint" />
            <Array as="points">
              <mxPoint x="180" y="300" />
              <mxPoint x="540" y="300" />
            </Array>
          </mxGeometry>
        </mxCell>
        <mxCell id="OxlySmR4vLSFhT8WwaMB-38" style="edgeStyle=orthogonalEdgeStyle;rounded=0;orthogonalLoop=1;jettySize=auto;html=1;exitX=0.25;exitY=1;exitDx=0;exitDy=0;entryX=0.363;entryY=0;entryDx=0;entryDy=0;entryPerimeter=0;startArrow=classic;startFill=1;" edge="1" parent="1" source="OxlySmR4vLSFhT8WwaMB-9" target="OxlySmR4vLSFhT8WwaMB-22">
          <mxGeometry relative="1" as="geometry" />
        </mxCell>
      </root>
    </mxGraphModel>
  </diagram>
</mxfile>
